<svg xmlns="http://www.w3.org/2000/svg" width="16.401" height="16.401" viewBox="0 0 16.401 16.401"><defs><style>.a{fill:#32BEA6;}.b{fill:#fff;}</style></defs><ellipse class="a" cx="8.201" cy="8.201" rx="8.201" ry="8.201"/><path class="b" d="M701.218,442.964a.85.85,0,0,1-.512-.17l-.009-.007-1.927-1.474a.856.856,0,0,1,1.042-1.359l1.248.957,2.95-3.848a.856.856,0,0,1,1.2-.159h0l-.018.025.019-.025a.857.857,0,0,1,.158,1.2l-3.47,4.525a.857.857,0,0,1-.681.334Z" transform="translate(-693.83 -431.634)"/></svg>